<svg xmlns="http://www.w3.org/2000/svg" viewBox="0 0 500 400">
  <!-- Background Elements -->
  <rect x="50" y="80" width="180" height="250" rx="10" fill="#f3f4f6"/>
  <rect x="270" y="100" width="180" height="220" rx="10" fill="#dbeafe"/>

  <!-- House Outline -->
  <path d="M50 180 L140 100 L230 180" stroke="#1e40af" stroke-width="4" fill="none"/>
  <rect x="70" y="180" width="140" height="130" fill="#ffffff" stroke="#1e40af" stroke-width="3"/>

  <!-- Door -->
  <rect x="125" y="240" width="40" height="70" rx="3" fill="#78350f"/>
  <circle cx="155" cy="280" r="4" fill="#fbbf24"/>

  <!-- Windows -->
  <rect x="85" y="200" width="30" height="30" fill="#dbeafe" stroke="#1e40af" stroke-width="2"/>
  <line x1="100" y1="200" x2="100" y2="230" stroke="#1e40af" stroke-width="2"/>
  <line x1="85" y1="215" x2="115" y2="215" stroke="#1e40af" stroke-width="2"/>

  <rect x="175" y="200" width="30" height="30" fill="#dbeafe" stroke="#1e40af" stroke-width="2"/>
  <line x1="190" y1="200" x2="190" y2="230" stroke="#1e40af" stroke-width="2"/>
  <line x1="175" y1="215" x2="205" y2="215" stroke="#1e40af" stroke-width="2"/>

  <!-- Light in window -->
  <rect x="86" y="201" width="13" height="13" fill="#fbbf24" opacity="0.8"/>

  <!-- Office Building -->
  <rect x="280" y="130" width="160" height="190" fill="#ffffff" stroke="#1e40af" stroke-width="3"/>

  <!-- Office Windows Grid -->
  <rect x="295" y="145" width="25" height="25" fill="#dbeafe" stroke="#93c5fd" stroke-width="1"/>
  <rect x="330" y="145" width="25" height="25" fill="#fbbf24" stroke="#93c5fd" stroke-width="1"/>
  <rect x="365" y="145" width="25" height="25" fill="#dbeafe" stroke="#93c5fd" stroke-width="1"/>
  <rect x="400" y="145" width="25" height="25" fill="#dbeafe" stroke="#93c5fd" stroke-width="1"/>

  <rect x="295" y="180" width="25" height="25" fill="#dbeafe" stroke="#93c5fd" stroke-width="1"/>
  <rect x="330" y="180" width="25" height="25" fill="#dbeafe" stroke="#93c5fd" stroke-width="1"/>
  <rect x="365" y="180" width="25" height="25" fill="#fbbf24" stroke="#93c5fd" stroke-width="1"/>
  <rect x="400" y="180" width="25" height="25" fill="#dbeafe" stroke="#93c5fd" stroke-width="1"/>

  <rect x="295" y="215" width="25" height="25" fill="#fbbf24" stroke="#93c5fd" stroke-width="1"/>
  <rect x="330" y="215" width="25" height="25" fill="#dbeafe" stroke="#93c5fd" stroke-width="1"/>
  <rect x="365" y="215" width="25" height="25" fill="#dbeafe" stroke="#93c5fd" stroke-width="1"/>
  <rect x="400" y="215" width="25" height="25" fill="#dbeafe" stroke="#93c5fd" stroke-width="1"/>

  <rect x="295" y="250" width="25" height="25" fill="#dbeafe" stroke="#93c5fd" stroke-width="1"/>
  <rect x="330" y="250" width="25" height="25" fill="#dbeafe" stroke="#93c5fd" stroke-width="1"/>
  <rect x="365" y="250" width="25" height="25" fill="#dbeafe" stroke="#93c5fd" stroke-width="1"/>
  <rect x="400" y="250" width="25" height="25" fill="#fbbf24" stroke="#93c5fd" stroke-width="1"/>

  <!-- Office Door -->
  <rect x="340" y="285" width="40" height="35" rx="2" fill="#1e40af"/>

  <!-- Ground -->
  <rect x="0" y="320" width="500" height="80" fill="#e5e7eb"/>

  <!-- Electrician 1 -->
  <g transform="translate(120, 240)">
    <!-- Shadow -->
    <ellipse cx="30" cy="120" rx="25" ry="8" fill="#1e40af" opacity="0.2"/>
    <!-- Body -->
    <rect x="10" y="50" width="40" height="60" rx="5" fill="#1e40af"/>
    <!-- Legs -->
    <rect x="15" y="105" width="12" height="35" fill="#1e3a8a"/>
    <rect x="33" y="105" width="12" height="35" fill="#1e3a8a"/>
    <!-- Head -->
    <circle cx="30" cy="35" r="20" fill="#f5d0b0"/>
    <!-- Hard Hat -->
    <ellipse cx="30" cy="22" rx="22" ry="15" fill="#fbbf24"/>
    <rect x="10" y="22" width="40" height="8" rx="2" fill="#f59e0b"/>
    <!-- Face -->
    <circle cx="24" cy="35" r="3" fill="#1f2937"/>
    <circle cx="36" cy="35" r="3" fill="#1f2937"/>
    <path d="M25 45 Q30 50 35 45" stroke="#1f2937" stroke-width="2" fill="none"/>
    <!-- Tool -->
    <rect x="50" y="60" width="6" height="30" fill="#fbbf24"/>
  </g>

  <!-- Electrician 2 -->
  <g transform="translate(320, 235)">
    <!-- Shadow -->
    <ellipse cx="25" cy="125" rx="25" ry="8" fill="#1e40af" opacity="0.2"/>
    <!-- Body -->
    <rect x="5" y="50" width="40" height="65" rx="5" fill="#1e40af"/>
    <!-- Legs -->
    <rect x="10" y="110" width="12" height="40" fill="#1e3a8a"/>
    <rect x="28" y="110" width="12" height="40" fill="#1e3a8a"/>
    <!-- Head -->
    <circle cx="25" cy="35" r="20" fill="#d4a574"/>
    <!-- Hard Hat -->
    <ellipse cx="25" cy="22" rx="22" ry="15" fill="#fbbf24"/>
    <rect x="5" y="22" width="40" height="8" rx="2" fill="#f59e0b"/>
    <!-- Face -->
    <circle cx="19" cy="35" r="3" fill="#1f2937"/>
    <circle cx="31" cy="35" r="3" fill="#1f2937"/>
    <path d="M20 45 Q25 50 30 45" stroke="#1f2937" stroke-width="2" fill="none"/>
    <!-- Toolbox -->
    <rect x="45" y="80" width="25" height="18" rx="3" fill="#ef4444"/>
    <rect x="53" y="76" width="10" height="6" rx="2" fill="#b91c1c"/>
  </g>

  <!-- Van -->
  <g transform="translate(200, 280)">
    <!-- Van Body -->
    <rect x="0" y="20" width="80" height="45" rx="5" fill="#1e40af"/>
    <!-- Van Cab -->
    <path d="M60 20 L60 5 Q70 0 80 5 L80 20" fill="#1e40af"/>
    <!-- Windows -->
    <rect x="62" y="8" width="15" height="12" rx="2" fill="#dbeafe"/>
    <rect x="5" y="25" width="50" height="20" rx="2" fill="#ffffff"/>
    <!-- Wheels -->
    <circle cx="20" cy="65" r="12" fill="#1f2937"/>
    <circle cx="20" cy="65" r="6" fill="#6b7280"/>
    <circle cx="65" cy="65" r="12" fill="#1f2937"/>
    <circle cx="65" cy="65" r="6" fill="#6b7280"/>
    <!-- Logo on Van -->
    <text x="30" y="40" font-family="Arial" font-size="8" font-weight="bold" fill="#fbbf24">TRUST MEE</text>
    <!-- Lightning Bolt -->
    <path d="M10 30 L6 38 L12 38 L7 48 L16 36 L10 36 Z" fill="#fbbf24"/>
  </g>

  <!-- Floating Elements -->
  <!-- Lightning Bolt 1 -->
  <path d="M60 50 L50 70 L60 70 L45 95 L70 65 L58 65 Z" fill="#fbbf24"/>

  <!-- Lightning Bolt 2 -->
  <path d="M450 60 L440 80 L450 80 L435 105 L460 75 L448 75 Z" fill="#fbbf24"/>

  <!-- Tools floating -->
  <g transform="translate(420, 200)">
    <rect x="0" y="0" width="8" height="35" rx="2" fill="#fbbf24"/>
    <rect x="2" y="-5" width="4" height="8" fill="#6b7280"/>
  </g>

  <!-- Wrench -->
  <g transform="translate(40, 280) rotate(-30)">
    <rect x="0" y="8" width="30" height="6" rx="2" fill="#6b7280"/>
    <circle cx="0" cy="11" r="8" fill="#6b7280"/>
    <circle cx="0" cy="11" r="4" fill="#e5e7eb"/>
  </g>

  <!-- Checkmark badges -->
  <g transform="translate(180, 50)">
    <circle cx="15" cy="15" r="15" fill="#22c55e"/>
    <path d="M8 15 L13 20 L22 10" stroke="#ffffff" stroke-width="3" fill="none" stroke-linecap="round" stroke-linejoin="round"/>
  </g>

  <g transform="translate(380, 280)">
    <circle cx="12" cy="12" r="12" fill="#22c55e"/>
    <path d="M6 12 L10 16 L18 8" stroke="#ffffff" stroke-width="2" fill="none" stroke-linecap="round" stroke-linejoin="round"/>
  </g>

</svg>
